<?xml version="1.0" encoding="UTF-8"?>
<svg id="_Слой_1" data-name="Слой 1" xmlns="http://www.w3.org/2000/svg" viewBox="0 0 64 32">
  <defs>
    <style>
      .cls-1 {
        fill: none;
      }

      .cls-2, .cls-3 {
        fill: #00184c;
      }

      .cls-4, .cls-3 {
        isolation: isolate;
      }

      .cls-3 {
        font-family: Montserrat-ExtraBold, Montserrat;
        font-size: 8.2px;
        font-variation-settings: 'wght' 800;
        font-weight: 700;
      }
    </style>
  </defs>
  <g>
    <g class="cls-4">
      <text class="cls-3" transform="translate(.12 28.29) scale(1.02 1)"><tspan x="0" y="0">A</tspan></text>
      <text class="cls-3" transform="translate(6.67 28.29) scale(1.02 1)"><tspan x="0" y="0">tlant </tspan></text>
      <text class="cls-3" transform="translate(30.35 28.29) scale(1.02 1)"><tspan x="0" y="0">C</tspan></text>
      <text class="cls-3" transform="translate(36.34 28.29) scale(1.02 1)"><tspan x="0" y="0">onsalt</tspan></text>
    </g>
    <g>
      <path class="cls-2" d="M49.21,18.4h0v-.12s0,.08,0,.12Z"/>
      <path class="cls-2" d="M51.28,16.88h-.38v-.02c-.58-.67-1.26-1.18-2.03-1.64.67.03,1.28.17,1.86.41l-.11-.84c-.08-.55-.34-1.04-.76-1.42-.38-.34-.88-.57-1.4-.62l-4.85-.46-2.19-3.62c-.28-.47-.78-.75-1.33-.75h-3.76c-2.6-3.93-6.67-3.93-6.67-3.93v-1.13h-.17v-.81C29.49.92,28.56,0,27.41,0v.78c.71,0,1.3.57,1.3,1.27v.81h-.17v2.6H7.05c-.45,0-.67.53-.35.84.09.1.22.15.35.15h11.48l.63.62h-10.46c-.45,0-.68.54-.36.85l1.11,1.08c.1.09.23.15.36.15h11.49c.26.25.52.51.79.76h-10.48c-.45,0-.68.53-.36.84.48.47.95.94,1.43,1.41.1.09.22.14.36.14h11.5c.26.26.53.52.79.77h-10.49c-.46,0-.68.53-.36.84l1.43,1.4c.09.1.22.15.36.15h11.51c.26.25.52.51.77.76h-10.49c-.45,0-.68.54-.36.85l1.25,1.21c.09.1.22.15.36.15h24.47s0,.11,0,.16c0,1.48,1.23,2.68,2.74,2.68s2.66-1.11,2.73-2.53h2.06c.2,0,.37-.16.37-.36v-1.1c0-.2-.17-.36-.37-.36ZM37.33,9.4h1.6c.71,0,1.36.36,1.71.96l1.01,1.71h-4.32s0-2.67,0-2.67ZM32.61,8.63c.69,0,1.26.55,1.26,1.22v2.22h-1.26v-3.44ZM30.34,17.53c-.08-.08-.16-.16-.24-.24h11.14l.24.24h-11.14ZM31.47,16.64c-.15-.15-.3-.29-.44-.44h11.13l.45.44h-11.14ZM46.5,20.2c-.93,0-1.68-.73-1.68-1.64s.75-1.64,1.68-1.64,1.68.74,1.68,1.64-.75,1.64-1.68,1.64ZM49.22,18.29v.12h0s0-.08,0-.12c-.14-1.35-1.31-2.39-2.73-2.39s-2.59,1.04-2.73,2.39c0-.04,0-.09,0-.14,0-1.47,1.23-2.68,2.74-2.68s2.74,1.2,2.74,2.68c0,.05,0,.1,0,.14Z"/>
      <path class="cls-2" d="M49.21,18.4h0v-.12s0,.08,0,.12Z"/>
    </g>
  </g>
  <rect class="cls-1" y="0" width="64" height="32"/>
</svg>